<?xml version="1.0" encoding="utf-8"?>
<!-- Generator: Adobe Illustrator 21.0.2, SVG Export Plug-In . SVG Version: 6.00 Build 0)  -->
<svg version="1.1" id="Layer_1" xmlns="http://www.w3.org/2000/svg" xmlns:xlink="http://www.w3.org/1999/xlink" x="0px" y="0px"
	 viewBox="0 0 512 512" style="enable-background:new 0 0 512 512;" xml:space="preserve">
<style type="text/css">
	.st0{clip-path:url(#SVGID_2_);}
	.st1{fill:#67AB44;}
	.st2{fill:#0A0A0A;}
	.st3{fill:#FFFFFF;}
</style>
<g>
	<defs>
		<rect id="SVGID_1_" y="0" width="512" height="512"/>
	</defs>
	<clipPath id="SVGID_2_">
		<use xlink:href="#SVGID_1_"  style="overflow:visible;"/>
	</clipPath>
	<g class="st0">
		<g>
			<g>
				<path class="st1" d="M264.7,168.6c0,0,0.2-57.2-4.7-77.3c0,0-0.5-1.1-3,1c0,0-19.5,19.5-40.1,17.4c0,0-21.3-4.3-9.6-27.7
					c0,0,12.9-25.5,51.7,0.1c0,0,20.6-23.5,45.2-17.4c0,0,22.9,7,15.1,27.3c0,0-9.3,18.4-31.3,4.2c0,0-17-12.5-23.4-6.9
					c0,0,8,68.5,5.7,79.2L264.7,168.6z"/>
				<g>
					<path class="st2" d="M383.6,318c-3.5-7.8-7.1-19.6-8-36.1c0,0-2-49.8-22-87.1c0,0,22.7-4.7,21.4-35.1c0,0-3-35.8-43.8-26.5
						c0,0-18.9,6.5-19.7,29.1c0,0-31-18.5-92.9-3.9c0,0,1.3-23.8-25.2-28.8c0,0-38.7-3-35.7,35.7c0,0,2.3,18.6,21.2,26.1
						c0,0-30.1,42.8-23.8,127.5c0,0,0,0.2-0.1,0.7l110,66.2L383.6,318z"/>
					<path class="st2" d="M418.8,371.1l-0.1,0c-1.5-2.5-2.8-4.8-4.5-7.5l-21.9-31.1c-13.3,17.2-28.3,32.6-43.3,46.1l-0.9,0.1
						c-41.2,37-81.7,58.9-81.7,58.9c-21.7-11.3-42.1-27.3-59.7-43.6l-0.6,0.1c-28.6-26.7-49.7-54-56.2-62.8
						c-2.3,1.4-5.6,1.4-10.5-1.8c0,0-17.5-8.9-39-36.8c-0.6-0.8-1.1-1.7-1.7-2.6c-2.9-4.2-6-8.4-9.4-12.3c-1.5-1.7-4.3-5.5-5.9-7.1
						c-0.8-0.7-4.3-4.3-7.4-4.6c-4.3-0.5-3.6,3.2-4,2.5c-1-1.4-3.4-3.6-6.8-2.7c-1.3,0.3-4.6,1.5-4.3,5.5c-1.9-1.8-4.3-3.2-8.5-1.1
						c-3.8,1.9-3.6,7.6-2.8,9c-2.5-2-7-0.7-9,3c-1.4,2.6-0.3,6.5,1.3,8.5c0,0-9.1,0.9-3.1,14.3c0,0,16.3,29.1,20.5,45
						c0,0,6,20.9,11.3,42.8c0,0,0.9,5.1,3.9,12.4c4.1,14.5,19.1,68.8,25.2,107.2c0,0,10,72.6,20,116c0,0,13.1,107.1,85.5,147.4
						c0,0,60.6,23.7,64.4-18.1c0,0,4.1-7.1-9.5-36.3c0,0-7.2-29.2,10.5-32.9c0,0,18.3,1.2,10.7,35.7c0,0-7.5,17.2-3.8,34.2
						c0,0,8,41.6,65.7,14.4c0,0,49.4-30.4,75.5-126.1c0,0,3.4-13.4,7.4-34.6c14-1.8,33.2-12.8,38.4-57.6
						C464.3,554.5,479.1,457.3,418.8,371.1z"/>
					<path class="st3" d="M348.1,378.7c15.2-13.7,30.6-29.4,44.1-46.8l-0.9-1.4c0,0-3.8-3.8-7.6-12.5L265,385.9l-110-66.2
						c-0.2,2.1-1.2,8.5-5.1,10.9c6.6,8.9,27.9,36.6,56.8,63.4c17.6,16.3,38,32.3,59.7,43.6C266.4,437.6,306.8,415.7,348.1,378.7z"/>
				</g>
				<g>
					<path class="st2" d="M39.3,297.1c-0.2-1.1-0.9-2.7-1.7-3.6c-0.5-0.8-2.1-2.3-3-2.5c1.2-2.3,5.3,0.4,6.4,1.6
						c2.4,2.4-0.6,3.3-2.2,4.7"/>
					<path class="st2" d="M64.3,270.9c0-1.1-0.6-2.8-1.1-3.7c-0.5-0.8-1.8-2.6-2.7-2.9c1.5-2.1,5.1,1.2,6.1,2.5
						c2.1,2.7-1.1,3.2-2.9,4.3"/>
					<path class="st2" d="M74.1,269.9c0-0.8-0.4-1.9-0.8-2.6c-0.3-0.6-1.2-1.8-1.8-2c1-1.5,3.6,0.9,4.3,1.8c1.4,1.9-0.8,2.3-2.1,3"
						/>
					<path class="st2" d="M43.1,284.5c-0.2-1.1-1.1-2.6-1.8-3.4c-0.6-0.7-2.2-2.2-3.1-2.4c1.1-2.3,5.2,0.2,6.4,1.3
						c2.5,2.3-0.4,3.4-1.9,4.7"/>
					<path class="st2" d="M51.3,274.2c-0.2-1-0.9-2.6-1.7-3.5c-0.6-0.7-2.1-2.3-3-2.5c1.2-2.3,5.2,0.4,6.4,1.6
						c2.4,2.4-0.6,3.4-2.2,4.6"/>
					<path class="st3" d="M65.4,274.2c0.1,0.2,0.2,0.4,0.4,0.6c0.8,0.7,2.1,0.7,3,0.3c0.9-0.4,1.2-2.3,0.8-3.2
						c-0.2-0.4-0.9-1.4-1.4-1.6c-0.9-0.3-2.2,0-2.9,0.5C64.5,271.6,64.8,273.4,65.4,274.2z"/>
					<path class="st3" d="M76.5,274c0,0.1,0.2,0.3,0.3,0.4c0.7,0.6,1.7,0.6,2.5,0.3c0.8-0.4,1-2,0.7-2.7c-0.1-0.4-0.7-1.2-1.1-1.3
						c-0.7-0.3-1.8,0-2.4,0.4C75.8,271.8,76,273.3,76.5,274z"/>
					<path class="st3" d="M41.2,299.4c0.2,0.2,0.2,0.3,0.4,0.4c0.6,0.6,1.7,0.6,2.5,0.3c0.7-0.4,1-1.9,0.7-2.7
						c-0.2-0.3-0.7-1.2-1.1-1.3c-0.7-0.3-1.8-0.1-2.4,0.4C40.6,297.2,40.8,298.7,41.2,299.4z"/>
					<path class="st3" d="M51.9,285.3c-0.4-0.8-1-1.5-1.9-1.8c-1-0.4-2.1-0.4-2.9,0.4c-1.1,0.9-1.4,2.4-1.1,3.7c0.3,1.3,2,1.9,3.2,2
						c0.6,0,1.1-0.2,1.7-0.6c1.2-0.9,1.7-2.1,1.2-3.5C52,285.5,52,285.3,51.9,285.3z"/>
					<path class="st3" d="M60.2,276.6c0-0.2-0.1-0.4-0.2-0.6c-0.7-1.3-2.1-1.4-3.4-1.1c-1.1,0.3-1.7,0.7-2.1,1.8
						c-1.2,2.9,1.9,4.6,4.4,3.9c0.5-0.1,0.9-0.6,1.1-1C60.5,278.7,60.5,277.5,60.2,276.6z"/>
					<path class="st3" d="M58.4,291.6c-1.4,1.3-2.6,2.6-3.5,4.3c-1,1.9-1.8,4-2.1,6.2c-0.2,1.6-0.3,3.2,0,4.8
						c0.2,0.9,0.6,1.5,1.1,2.3c1,1.6,2.5,3,4.3,3.5c1.7,0.5,4.9,0.6,5.9-1.2c0.5-0.8,1.1-1.6,1.6-2.4c0.4-0.8,0.7-1.7,1.2-2.5
						c0.5-0.8,1-1.5,1.7-2.1c0.7-0.6,1.4-1.1,2.1-1.7c1-0.6,2-0.9,3-1c1-0.2,2.1-0.5,3.2-0.6c0.4,0,1-0.1,1.4-0.1
						c0.4,0,1.1-0.1,1.6-0.2c1.9-0.1,4-1.3,5-3.2c0.5-0.9,0.9-2.1,0.9-3.1c0-2.4-2-5.1-3.7-6.6c-1.2-1.1-3.1-1.9-4.6-2.2
						c-1-0.2-2-0.2-3-0.3c-1.1-0.1-1.9-0.3-2.9-0.1c-1.1,0.2-1.9,0.6-2.9,0.8c-0.6,0.1-1,0.3-1.5,0.4c-0.5,0.1-0.9,0.2-1.4,0.4
						c-0.8,0.4-1.7,0.9-2.5,1.3c-0.2,0.1-0.3,0.4-0.5,0.5c-0.2,0.2-0.4,0.1-0.7,0.3C60.7,289.9,59.5,290.6,58.4,291.6z"/>
				</g>
				<path class="st3" d="M265.2,274.1c-2,0.3-4.7-1.8-6.1-3.3c-1.7-1.8-3.6-3.7-4.5-6c-0.4-1-0.7-2.6-0.4-3.7c0.3-1.1,1.2-1.6,2.3-2
					c2.3-0.9,4.6-1.4,7.3-1.7c2.6-0.3,5,0.1,7.7,0.1c2.1,0,4.7,1.1,5.4,3.3c1.5,4.5-3.5,8-6.5,10.6c-1.8,1.5-4,3.6-6.6,2.4"/>
				<path class="st3" d="M230.1,255.7c0.3,0.2,0.6,0.4,0.9,0.6c3.2,1.7,7.5,1.3,9.3-2.1c1.5-2.8,0.8-6.3-1.8-8.1
					c-2.9-2.1-8-1.4-9.8,1.8C227.4,250.4,227.9,253.8,230.1,255.7z"/>
				<path class="st2" d="M243.1,251.3c0,2.7-2.2,4.9-4.8,4.9c-2.7,0-4.9-2.2-4.9-4.9c0-2.7,2.2-4.9,4.9-4.9
					C240.9,246.5,243.1,248.7,243.1,251.3z"/>
				<path class="st3" d="M288.8,255.7c0.3,0.2,0.6,0.4,0.9,0.6c3.2,1.7,7.5,1.3,9.3-2.1c1.5-2.8,0.8-6.3-1.8-8.1
					c-2.9-2.1-7.9-1.4-9.8,1.8C286.2,250.4,286.6,253.8,288.8,255.7z"/>
				<path class="st2" d="M301.8,251.3c0,2.7-2.2,4.9-4.9,4.9c-2.7,0-4.9-2.2-4.9-4.9c0-2.7,2.2-4.9,4.9-4.9
					C299.6,246.5,301.8,248.7,301.8,251.3z"/>
				<path class="st3" d="M267.6,283.8l-2.2-0.2c0.2-1.6-0.1-3.8-0.4-5.8c-0.1-1-0.3-2-0.3-2.9c-0.1-1.2-0.3-2.5-0.4-3.8
					c-0.3-1.7-0.5-3.4-0.6-5.2l2.1-0.1c0.1,1.6,0.3,3.3,0.6,5c0.2,1.3,0.4,2.6,0.5,3.9c0.1,0.8,0.2,1.8,0.4,2.8
					C267.4,279.6,267.7,281.9,267.6,283.8L267.6,283.8z"/>
				<path class="st3" d="M263.3,290.4l-1.9-1c0.4-0.7,1-1.6,1.6-2.5c0.9-1.4,2-3,2.3-4.1l2,0.4c-0.3,1.6-1.5,3.2-2.6,5
					C264.3,289,263.7,289.8,263.3,290.4L263.3,290.4z"/>
				<path class="st3" d="M271.6,290.5c-1.8-1.5-3.8-3.8-5.6-5.7l-0.4-0.6l1.6-1.4l0.5,0.6c1.7,1.9,3.6,4.1,5.3,5.5L271.6,290.5
					L271.6,290.5z"/>
			</g>
		</g>
		<g>
			<g>
				<g>
					<polygon class="st2" points="559.6,310.1 593.6,244.9 575.4,238 530.7,327.3 655.3,327.3 662.4,341.4 682.5,328.4 653.7,284.3 
						638.8,294.3 643.8,304.3 					"/>
					<polygon class="st2" points="560.6,423.7 645.3,424.2 643,357.1 559.1,357.6 					"/>
				</g>
				<g>
					<polygon class="st2" points="785.9,267.1 765.4,238.1 749.4,255.8 774.8,279.7 					"/>
					<polygon class="st2" points="783.6,324.1 757.1,298.5 748.6,320.5 774.8,337.5 					"/>
					<polygon class="st2" points="770.7,356.7 745,397.4 766.8,412.6 782.5,364.7 					"/>
					<polygon class="st2" points="807.1,299.8 834.6,299.1 836.8,306.4 846.8,301.6 839.7,286.2 831.3,288 832.5,292.2 824.4,291.8 
						835.6,268.6 810.6,267.5 820.8,242.6 809,240.2 795.6,276.4 818.5,278.6 					"/>
					<polygon class="st2" points="922.4,288 923.7,292.2 915.5,291.8 924.7,270.3 901.8,267.5 912,246.7 901.1,240.8 886.9,278.6 
						910.5,279.7 896.3,301.6 925.7,299.1 927.9,306.4 938.8,304.5 931.1,286.8 					"/>
					<polygon class="st2" points="869.5,249.3 859.3,235.2 853.1,242.3 862.4,255.5 					"/>
					<polygon class="st2" points="843,258.6 843.8,266.1 886.3,267.3 887.2,255.5 					"/>
					<polygon class="st2" points="849.1,280.3 881.6,282.1 882.3,271.4 848.2,273.7 					"/>
					<polygon class="st2" points="881,287.4 849.1,288.3 850.8,298.7 881,297.1 					"/>
					<polygon class="st2" points="809.3,309.1 798.4,309.8 793.7,328.1 804.4,331.2 					"/>
					<polygon class="st2" points="824.4,309.1 814.9,309.8 814.9,329.3 824.8,329.9 					"/>
					<polygon class="st2" points="839.4,309.5 832.8,310.8 833.2,329.9 842,329.4 					"/>
					<polygon class="st2" points="885.7,329.3 895.6,331.2 900.4,309.1 890.5,308 					"/>
					<polygon class="st2" points="905.8,309.8 905.8,328.7 915.9,329.9 915.5,309.1 					"/>
					<polygon class="st2" points="930.5,309.5 923.9,310.8 924.3,329.9 933.2,329.4 					"/>
					<path class="st2" d="M882.7,332.5l-0.8-28.4l-32.5,1.6l1,27.1L882.7,332.5z M871.3,314.9v9.7l-11.9,0.4l-0.9-9.3L871.3,314.9z"
						/>
					<polygon class="st2" points="852,377.1 894.7,378.1 893.4,345.8 835.4,345.8 836.1,357.6 872,358.8 874.4,365.9 835.8,368.8 
						835,399.5 888.7,400.1 888.1,416 881.9,414.8 878.1,426.1 900,430.7 903.6,386.9 851.7,385.9 					"/>
				</g>
				<g>
					<path class="st2" d="M1162.2,239.1l-148.8,3.1l2.7,66.3l61.5,0.4l0.1,16.7l-54.5,2.9v15.1l54.6-0.7l0,17.3l-61.4,2.3l-0.3,15.1
						h152.8l-0.1-20.9l-69.5,2.7l-0.2-16.7l57.5-0.8l1.2-20.5l-58.9,3.1l-0.2-15.4l62.1,0.4L1162.2,239.1z M1035.3,296.7l-2.7-37
						l44.8-1.8l0.1,37.9L1035.3,296.7z M1098.6,295.3l-0.4-38.3l43.6-1.8l0.9,39.2L1098.6,295.3z"/>
					<polygon class="st2" points="1043.1,278.3 1061.2,288.7 1068,281.5 1051.1,266 					"/>
					<polygon class="st2" points="1111.1,279.5 1120.5,288.5 1136.3,271 1123.7,259.7 					"/>
					<polygon class="st2" points="1001.2,420 1017.7,422.5 1026.8,392.3 1014.7,390.6 					"/>
					<polygon class="st2" points="1056.5,391.4 1052,422.5 1067.5,423 1068.8,390.6 					"/>
					<polygon class="st2" points="1103.9,392.3 1108.9,420.7 1123.9,419 1115.3,390.2 					"/>
					<polygon class="st2" points="1149.9,392.7 1165.2,420.2 1177.5,409.5 1159.9,386.6 					"/>
				</g>
				<g>
					<path class="st2" d="M1317.8,285.6c2.1,3.3,3.6,5.9,3.6,5.9l11.3-8.6l-16.2-23.4l-10.8,5.8c0.1,0.4,1.4,2.7,3.3,5.6l-29.5,2
						l11.3-27.1l-10.4-6.3l-24.8,47.4L1317.8,285.6z"/>
					<path class="st2" d="M1325.9,298.2l-68.9-1.3l0.9,80.7l13.5-0.5l-0.4-26.6l38.8,1.4l0.4,12.6l-7.7-3.6l-3.6,13.9l28.9,7.7
						L1325.9,298.2z M1271,341v-10.8h38.8l0.4,11.7L1271,341z M1270.5,318l0.5-9l38.8,1.8l0.4,9.5L1270.5,318z"/>
					<path class="st2" d="M1414.4,299.1l-1.4-20.7l-49.1,4.5l-0.9-6.7l37.4-15.3l-2.7-10.9l-36.1,10.9l-0.9-19.4
						c0,0-11.7,1.4-12.1,1.4l1.3,55.9L1414.4,299.1z"/>
					<path class="st2" d="M1420.6,376.6l-0.9-20.3l-54.1,4.5l-1.3-9.4l40.9-16.8l-2.9-11.8l-39.5,11.8l-1-21.3
						c0,0-12.9,1.5-13.3,1.5l1.5,61.3L1420.6,376.6z"/>
					<polygon class="st2" points="1247.9,418.1 1265.1,420.8 1273.2,393.3 1262.4,389.7 					"/>
					<polygon class="st2" points="1319.2,422.6 1319.7,393.3 1307.4,392.9 1302.9,420 					"/>
					<polygon class="st2" points="1359.8,421.7 1375.6,415.9 1367,391.5 1355.3,395.6 					"/>
					<polygon class="st2" points="1399,395.1 1411.6,420.8 1425.2,412.2 1408.5,388.9 					"/>
				</g>
				<g>
					<polygon class="st2" points="573.8,484.7 563.8,478.3 509.7,555 526.4,575.7 543.1,545.1 541.7,662.8 559.8,662.8 557.5,516.6 
											"/>
					<polygon class="st2" points="659.7,599.2 692.8,598.4 692.8,584.3 649.3,584.6 649.3,563.8 682.4,563.1 682,488.2 596.8,486.4 
						597.7,564.9 632.6,564.1 633,584.7 591.8,584.9 591.8,600.9 623.7,600.1 585.1,630.7 596.8,644.7 633.5,608.5 634.5,664.5 
						649.3,662.8 649.3,606.5 684.3,646.1 696.4,630.3 					"/>
				</g>
				<g>
					<polygon class="st2" points="840.9,473.5 824.1,472.2 816.1,487.3 769.3,487.3 768.7,508.9 805.2,507.8 788,540.4 889.7,540.9 
						898.9,551.8 911.8,537.2 882.9,514.3 873.6,521.9 877.6,526.6 812.3,528.7 823.4,507.2 915.1,504.4 913,487.3 833.7,487.3 
											"/>
					<path class="st2" d="M878.2,657.4l31.3,13.2l-3.3-109.1l-123,0.6v101.3h22.3l-2.4-33.1l87.1-1.8l1.2,18.6l-9-4.2L878.2,657.4z
						 M801.2,574.5h86v12l-86-2.4V574.5z M801.8,614.1l-0.6-13.3l86.6,0.6l0.6,12.6H801.8z"/>
				</g>
				<g>
					<polygon class="st2" points="1029.4,539.3 1049.9,539.9 1050,526.3 1029.6,524.7 1030.3,477.1 1013.3,478.7 1013.3,523.4 
						992.8,521.8 994,538.3 1013.3,538.9 1013.2,662.7 1027.5,664.8 					"/>
					<path class="st2" d="M1140.5,545.5l29.9,8.1l-2.3-60.4l-55.4-1.2l3.2-13l-13.1-1.5c-0.1,0.4-2.1,6.2-4.9,14.2l-32.2-0.6
						l0.6,15.6l26.1,0.7c-6.8,19.4-14.3,41.1-14.3,41.1l19.5,3.7l11.1-44.4l42.3,1.1l2.7,28.2l-10.2-2.5L1140.5,545.5z"/>
					<polygon class="st2" points="1082.5,567.1 1070.8,564.2 1065.5,582.4 1043.9,581.6 1042.5,596.6 1061,597.5 1042.7,659.8 
						1059.1,663.6 1074.9,598.2 1092.3,599 1093,647.2 1084,645.3 1082.1,660.3 1107,663.5 1108.2,583.9 1078.7,582.8 					"/>
					<polygon class="st2" points="1170.5,649.3 1163.3,646.2 1160.8,660.5 1185.1,664.4 1186.3,584.8 1156.9,583.7 1160.6,568 
						1148.9,565.1 1143.6,583.3 1122,582.6 1120.6,597.5 1139.1,598.4 1120.8,660.7 1137.3,664.5 1153.1,599.2 1168.7,599.9 					
						"/>
				</g>
				<g>
					<polygon class="st2" points="1333.9,475 1234.7,539.6 1244.9,553 1334.2,494.4 1427.9,551.3 1438.4,535.6 					"/>
					<polygon class="st2" points="1303.8,517.3 1303.6,529.4 1365.1,528.1 1364.4,517.8 					"/>
					<path class="st2" d="M1263,587.2l144.6,1.8l-1.2-48.9l-140.8,1.2L1263,587.2z M1389.7,550.1v25.5l-47.4,0.4l-1.4-25.2
						L1389.7,550.1z M1279.3,551.6l48.9-0.7l-1.2,25.1l-48.6,0.5L1279.3,551.6z"/>
					<path class="st2" d="M1282.8,600.1l0.9,62.7h107.1l-0.6-63L1282.8,600.1z M1297.8,625.1l-0.1-10.3l74.5-1.5l0.6,11.2
						 M1298,651.3l-0.1-13c10.8,0.1,55.8,0.3,75.7,0.2l0.8,13.4L1298,651.3z"/>
					<polygon class="st2" points="1293.4,563 1307.5,572.3 1312.8,564.7 1300.8,553.6 					"/>
					<polygon class="st2" points="1377.5,560 1367.8,553.3 1357.3,569.4 1365.4,574.7 					"/>
				</g>
			</g>
			<g>
				<polygon class="st2" points="531.2,174 545.4,174 545.4,119.5 562.5,119.5 562.5,111.7 514.1,111.7 514.1,119.5 531.2,119.5 
									"/>
				<path class="st2" d="M597,147.8c-6.4,0.4-11.3,1.7-14.5,4c-3.2,2.3-4.8,5.6-4.8,10.1c0.1,4.2,1.4,7.2,4.1,9.2
					c2.7,1.9,6.1,3,10.2,3.1c4.8,0,8.1-0.6,10.1-1.7c2-1.2,3.2-2.2,3.5-3v4.6h12.6v-31.9c0-3.8-1.5-6.8-4.6-9.2
					c-3-2.3-8-3.5-14.9-3.5c-3.4,0-6.3,0.3-8.7,1.1c-2.5,0.7-4.4,1.4-5.7,2.2c-1.4,0.8-2,1.3-2,1.4l-1.9,8.8
					c0.9-1.3,2.7-2.9,5.6-4.7c2.9-1.9,6.9-2.9,12-2.9c2.5,0,4.5,0.6,5.9,1.7c1.5,1.1,2.2,2.5,2.2,4.1c0,1.6-0.8,3-2.4,4.3
					C602.3,146.7,600,147.4,597,147.8z M605.7,151.6v10.2c0,2.5-2.1,4.3-6.2,5.4c-1.5,0.5-2.9,0.6-4.3,0.6c-4.5,0-6.9-1.5-7.2-4.5
					c0-2.5,0.9-4.4,2.7-5.5c1.8-1,4.5-1.9,7.9-2.3c2.1-0.2,3.6-0.6,4.6-1.1c1-0.5,1.6-1.1,1.9-1.7
					C605.5,152,605.7,151.7,605.7,151.6z"/>
				<path class="st2" d="M643.2,125.9c2.3,0,4-0.7,5.3-2.1c1.3-1.4,1.9-3.1,1.9-5.1c0-1.9-0.6-3.6-1.9-5c-1.2-1.4-3-2.1-5.2-2.1
					c-2.3,0-4.1,0.7-5.4,2.1c-1.3,1.4-1.9,3.2-1.9,5.1c0,1.8,0.6,3.5,1.9,4.9C639.2,125.2,641,125.9,643.2,125.9z"/>
				<rect x="637" y="129.5" class="st2" width="12.4" height="44.5"/>
				<polygon class="st2" points="711.7,148.7 703.7,129.7 690.3,129.7 691.7,133.9 685.3,149.3 678.4,129.7 665.8,129.7 
					682.6,175.5 696.3,141.6 710.8,175.5 725.9,129.7 718.3,129.7 				"/>
				<path class="st2" d="M759.9,147.8c-6.4,0.4-11.2,1.7-14.4,4c-3.2,2.3-4.8,5.6-4.8,10.1c0,4.2,1.4,7.2,4.1,9.2
					c2.7,1.9,6.1,3,10.2,3.1c4.8,0,8.2-0.6,10.1-1.7c2-1.2,3.1-2.2,3.5-3v4.6h12.6v-31.9c0-3.8-1.5-6.8-4.6-9.2
					c-3.1-2.3-8-3.5-14.9-3.5c-3.4,0-6.3,0.3-8.7,1.1c-2.4,0.7-4.3,1.4-5.7,2.2c-1.4,0.8-2,1.3-2,1.4l-1.9,8.8
					c0.9-1.3,2.7-2.9,5.6-4.7c2.8-1.9,6.9-2.9,12-2.9c2.5,0,4.5,0.6,6,1.7c1.4,1.1,2.2,2.5,2.2,4.1c0,1.6-0.8,3-2.4,4.3
					C765.1,146.7,762.8,147.4,759.9,147.8z M768.6,151.6v10.2c0,2.5-2.1,4.3-6.1,5.4c-1.5,0.5-3,0.6-4.3,0.6c-4.5,0-6.9-1.5-7.2-4.5
					c0-2.5,0.9-4.4,2.7-5.5c1.8-1,4.5-1.9,8-2.3c2-0.2,3.6-0.6,4.6-1.1c1-0.5,1.6-1.1,1.9-1.7C768.4,152,768.5,151.7,768.6,151.6z"
					/>
				<path class="st2" d="M812.3,141.8c0.2-0.9,0.9-2,2.2-3.4c1.2-1.4,3.2-2.3,6-2.6c5.7,0,8.5,1.9,8.5,5.6V174h9.4v-34.2
					c0-2.8-1.1-5.3-3.3-7.3c-2.1-2.1-5.6-3.2-10.2-3.2c-2.4,0-4.6,0.2-6.4,0.9c-1.8,0.5-3.3,1.2-4.3,1.9c-1.1,0.6-1.6,1.1-1.8,1.2
					v-3.7h-12.5V174h12.5V141.8z"/>
				<path class="st2" d="M952.9,156.1c0-9-5.2-14-15.5-15c2.2,0,5-1,8.3-2.8c3.3-1.9,5-5.8,5-11.7c0-9.9-6-14.8-18.2-14.8h-28.6V174
					h29c6,0,10.8-1.2,14.4-3.7C950.9,167.8,952.8,163.1,952.9,156.1z M918,119.5h12.9c5.7,0,8.8,2.6,9.2,7.7
					c0,6.9-3.2,10.4-9.6,10.4H918V119.5z M931.6,166.3H918v-20.9h13.2c2.9,0,5.4,0.9,7.3,2.6c2,1.8,2.9,4.2,2.9,7.4
					C941.4,162.6,938.2,166.3,931.6,166.3z"/>
				<rect x="971.1" y="111.7" class="st2" width="12.3" height="62.3"/>
				<path class="st2" d="M1020.6,147.8c-6.5,0.4-11.2,1.7-14.5,4c-3.2,2.3-4.8,5.6-4.8,10.1c0,4.2,1.4,7.2,4.1,9.2
					c2.7,1.9,6.1,3,10.2,3.1c4.8,0,8.1-0.6,10.1-1.7c2-1.2,3.2-2.2,3.5-3v4.6h12.5v-31.9c0-3.8-1.5-6.8-4.5-9.2
					c-3.1-2.3-8.1-3.5-15-3.5c-3.3,0-6.3,0.3-8.7,1.1c-2.4,0.7-4.3,1.4-5.7,2.2c-1.4,0.8-2,1.3-2,1.4l-1.8,8.8
					c0.9-1.3,2.8-2.9,5.6-4.7c2.8-1.9,6.9-2.9,12-2.9c2.5,0,4.5,0.6,5.9,1.7c1.5,1.1,2.2,2.5,2.2,4.1c0,1.6-0.8,3-2.4,4.3
					C1025.9,146.7,1023.6,147.4,1020.6,147.8z M1029.3,151.6v10.2c0,2.5-2,4.3-6.1,5.4c-1.5,0.5-2.9,0.6-4.3,0.6
					c-4.5,0-7-1.5-7.3-4.5c0-2.5,1-4.4,2.8-5.5c1.9-1,4.5-1.9,7.9-2.3c2.1-0.2,3.6-0.6,4.6-1.1c1-0.5,1.6-1.1,1.9-1.7
					C1029.1,152,1029.3,151.7,1029.3,151.6z"/>
				<path class="st2" d="M1068.8,171.8c3.2,1.6,7.5,2.3,13,2.3c3.8-0.1,7.1-0.4,9.6-0.9c2.5-0.5,3.7-0.9,3.7-1l0.8-7.3
					c0,0.1-0.6,0.5-1.9,1.1c-1.3,0.6-2.9,1.1-5.1,1.7c-2.1,0.5-4.6,0.8-7.5,0.8c-3.6-0.3-6-2-7.2-5.3c-1.2-3.3-1.7-7.5-1.7-12.8
					c0-4.3,0.7-7.9,2.1-10.7c1.4-2.8,4.3-4.2,8.5-4.2c3.3,0.1,6,0.3,8.1,1c2.2,0.6,3.7,1.1,4.4,1.5l-1.3-6.5
					c-1.1-0.3-2.8-0.7-5.4-1.2c-2.5-0.4-5.3-0.7-8.5-0.8c-5,0-8.9,0.8-11.9,2.3c-2.9,1.5-5.1,3.8-6.5,6.8c-1.4,3.1-2.1,7-2.3,11.8
					c0,6,0.7,10.7,2.1,14.2C1063.3,167.9,1065.6,170.3,1068.8,171.8z"/>
				<polygon class="st2" points="1126.2,155.8 1129.6,152.8 1145.6,174 1159.2,174 1137.9,145.4 1156.8,129.5 1146.4,129.5 
					1126.2,147 1126.2,111.7 1113.7,111.7 1113.7,174 1126.2,174 				"/>
				<path class="st2" d="M1264.1,170.3c3.7-2.5,5.5-7.2,5.7-14.2c0-9-5.2-14-15.5-15c2.2,0,4.9-1,8.3-2.8c3.3-1.9,5-5.8,5-11.7
					c0-9.9-6.1-14.8-18.2-14.8h-28.7V174h29C1255.6,174,1260.4,172.8,1264.1,170.3z M1234.8,119.5h12.9c5.7,0,8.8,2.6,9.2,7.7
					c0,6.9-3.2,10.4-9.6,10.4h-12.5V119.5z M1234.8,166.3v-20.9h13.1c3,0,5.4,0.9,7.4,2.6c1.9,1.8,2.9,4.2,2.9,7.4
					c0,7.2-3.3,10.8-9.8,10.8H1234.8z"/>
				<path class="st2" d="M1305.4,174.5c0.9,0.1,2.1,0.1,3.7,0.1c4,0,7.3-0.4,9.9-1.2c2.6-0.7,3.9-1.3,3.9-1.8l1.9-7.7
					c-0.8,0.8-2.5,1.8-5.1,2.9c-2.6,1.2-6.2,1.8-10.8,1.8c-3.8-0.2-6.3-2.1-7.8-5.6c-1.4-3.6-2.2-6.5-2.4-8.9h27.4
					c0-0.3,0.1-0.9,0.2-1.6c0.1-0.8,0.1-1.7,0.1-2.8c0-5.9-1.2-10.6-3.6-14c-2.8-4.2-8.2-6.3-16.2-6.3c-6.6,0.1-11.6,2-15.1,5.8
					c-3.4,3.9-5.2,9.8-5.2,18c0.1,7.2,1.7,12.4,4.7,15.7C1294.2,172.1,1298.9,174,1305.4,174.5z M1307.9,134.9
					c6.8,0,10.3,4.4,10.3,13.2h-19.4C1298.8,139.4,1301.9,135.1,1307.9,134.9z"/>
				<path class="st2" d="M1361.6,147.8c-6.4,0.4-11.3,1.7-14.4,4c-3.3,2.3-4.9,5.6-4.9,10.1c0.1,4.2,1.4,7.2,4.2,9.2
					c2.7,1.9,6.1,3,10.2,3.1c4.7,0,8.1-0.6,10.1-1.7c2-1.2,3.2-2.2,3.5-3v4.6h12.6v-31.9c0-3.8-1.6-6.8-4.6-9.2
					c-3.1-2.3-8-3.5-14.9-3.5c-3.4,0-6.2,0.3-8.7,1.1c-2.4,0.7-4.3,1.4-5.7,2.2c-1.3,0.8-2,1.3-2,1.4l-1.9,8.8
					c0.9-1.3,2.8-2.9,5.7-4.7c2.9-1.9,6.9-2.9,12-2.9c2.5,0,4.5,0.6,5.9,1.7c1.5,1.1,2.2,2.5,2.2,4.1c0,1.6-0.8,3-2.4,4.3
					C1366.8,146.7,1364.5,147.4,1361.6,147.8z M1370.3,151.6v10.2c0,2.5-2,4.3-6.1,5.4c-1.5,0.5-2.9,0.6-4.3,0.6
					c-4.6,0-7-1.5-7.3-4.5c0-2.5,0.9-4.4,2.7-5.5c1.9-1,4.5-1.9,8-2.3c2.1-0.2,3.6-0.6,4.6-1.1c1-0.5,1.7-1.1,1.9-1.7
					C1370.1,152,1370.3,151.7,1370.3,151.6z"/>
				<path class="st2" d="M1414,146.6c0-1.5,0.5-3.2,1.7-5.1c1.1-1.9,2.8-3.3,5-4.3c1.9-1.1,4.3-1.6,7.2-1.6c1.3,0,2.8,0.2,4.3,0.5
					l-1-6.4c-0.6-0.2-1.8-0.3-3.9-0.3c-2.6,0-4.8,0.3-6.5,1.1c-1.6,0.6-2.9,1.1-3.8,1.8c-0.9,0.6-1.6,1.3-2.1,1.8
					c-0.4,0.6-0.7,0.9-0.7,1v-5.5h-12.6V174h12.6V146.6z"/>
			</g>
			<g>
				<path class="st2" d="M541.2,722.6c3.1,0,5.7,0.4,7.9,1.3c2.2,0.9,3.7,1.6,4.6,2.2l-2-7.7c-1-0.3-2.6-0.7-5-1.1
					c-2.3-0.5-4.9-0.7-7.7-0.7c-4.8,0.1-8.7,0.9-11.5,2.7c-2.8,1.7-4.9,4.2-6.1,7.3c-1.3,3.1-2,6.9-2.1,11.5
					c0,8.6,1.6,14.8,4.7,18.8c3.1,4,8.7,6,16.5,6c3.4-0.1,6.2-0.5,8.6-1.3c2.4-0.7,3.6-1.2,3.6-1.6l0.6-6.8c0,0.1-0.5,0.4-1.5,1.1
					c-1.1,0.6-2.6,1.4-4.6,1.9c-2,0.6-4.6,0.9-7.5,0.9c-2.6-0.2-4.6-1.2-5.9-3.1c-1.3-1.8-2.2-4.1-2.6-6.7c-0.4-2.6-0.6-5.6-0.6-9
					c0-4.4,0.7-8.1,2.1-11.1C534.2,724.1,537,722.6,541.2,722.6z"/>
				<path class="st2" d="M589.7,731.6c-2.2-1.3-5.3-1.8-9.1-1.8c-10.3,0-15.4,5.5-15.6,16.5c0,5.8,1.2,9.9,3.7,12.6
					c2.5,2.6,6.4,3.9,11.6,4c5.5,0,9.6-1.3,12-4c2.4-2.7,3.7-7,3.7-12.7c0-3.7-0.5-6.8-1.5-9.2C593.6,734.6,592,732.8,589.7,731.6z
					 M586,755.2c-0.7,2.1-2.5,3.1-5.2,3.1c-2,0-3.4-0.6-4.4-1.8c-0.9-1.2-1.5-2.5-1.7-4c-0.2-1.4-0.4-3.6-0.4-6.3
					c0-3.7,0.4-6.6,1.2-8.7c0.8-2.1,2.6-3.2,5.4-3.3c2.7,0,4.5,1.1,5.2,3.3c0.7,2.2,1.1,5.2,1.1,8.9
					C587,750.1,586.7,753.1,586,755.2z"/>
				<path class="st2" d="M627.4,729.7c-1.8,0-3.4,0.2-4.8,0.6c-1.4,0.5-2.4,0.9-3.1,1.4c-0.7,0.5-1.2,0.8-1.3,0.8v-2.7h-9.2v32.6
					h9.2v-23.6c0.2-0.6,0.7-1.4,1.6-2.4c0.9-1.1,2.3-1.7,4.4-1.9c4.2,0,6.3,1.3,6.3,4.1v23.8h6.8v-25c0-2.1-0.8-3.8-2.4-5.4
					C633.2,730.5,630.7,729.7,627.4,729.7z"/>
				<path class="st2" d="M669.4,742.5c-2.4-0.6-4.7-1.2-6.9-1.8c-2.2-0.7-3.4-1.6-3.4-2.9c0.1-1.6,0.7-2.6,1.9-3.1
					c1.2-0.5,2.8-0.7,4.9-0.7c3.1,0,5.6,0.3,7.4,0.9c1.8,0.6,3,1.1,3.6,1.5l-1.5-5.3c-0.7-0.3-1.8-0.6-3.6-1c-1.8-0.4-4.1-0.6-7-0.6
					c-0.2,0-0.6,0-1.1,0.1c-0.4,0-0.8,0.1-1.1,0.1c-8,0.3-12.1,3.2-12.4,8.4c0,3,0.8,5.1,2.4,6.3c1.6,1.2,4.1,2.1,7.3,2.7
					c3.2,0.6,5.6,1.3,7,2c1.4,0.7,2.1,2.1,2.1,4.2c0,1.8-0.6,3.2-1.6,4.1c-1,0.8-3,1.2-5.8,1.2c-2.7,0-5-0.4-6.9-1.1
					c-1.9-0.8-3.2-1.3-3.9-1.9l1.3,5.7c0.8,0.3,2.2,0.6,4.2,1.1c2,0.5,4.3,0.7,7.1,0.7c1.1,0,1.9,0,2.3-0.1c4.1-0.3,7.2-1.3,9.3-3.1
					c2.2-1.7,3.3-4.6,3.3-8.6c-0.1-2.7-1-4.7-2.7-6C673.7,743.9,671.7,743,669.4,742.5z"/>
				<path class="st2" d="M705.2,729.7c-4.8,0-8.5,1.5-11,4.3c-2.5,2.8-3.8,7.2-3.8,13.2c0,5.2,1.2,9.1,3.4,11.5
					c2.2,2.3,5.6,3.7,10.4,4.1c0.6,0,1.5,0.1,2.7,0.1c2.9,0,5.3-0.3,7.2-0.9c1.9-0.5,2.8-1,2.8-1.3l1.4-5.7
					c-0.6,0.6-1.8,1.3-3.7,2.2c-1.9,0.9-4.5,1.2-7.8,1.2c-2.7-0.1-4.7-1.5-5.7-4.1c-1-2.7-1.6-4.8-1.7-6.5h20c0-0.2,0.1-0.6,0.1-1.2
					c0.1-0.6,0.1-1.3,0.1-2.1c0-4.3-0.9-7.7-2.6-10.2C715,731.3,711,729.7,705.2,729.7z M699.4,743.5c0-6.3,2.2-9.5,6.7-9.7
					c5,0,7.5,3.2,7.5,9.7H699.4z"/>
				<path class="st2" d="M751,729.8c-1.9,0-3.5,0.3-4.8,0.8c-1.1,0.4-2.1,0.9-2.8,1.4c-0.7,0.4-1.2,0.9-1.5,1.3
					c-0.4,0.4-0.5,0.6-0.6,0.7v-4.1h-9.3v32.6h9.3v-20c0-1.2,0.4-2.4,1.2-3.8c0.9-1.4,2.1-2.4,3.7-3.2c1.4-0.8,3.2-1.2,5.3-1.2
					c1,0,2,0.1,3.1,0.4l-0.8-4.7C753.5,729.9,752.6,729.8,751,729.8z"/>
				<polygon class="st2" points="781.4,747.4 773.5,729.9 764.6,729.9 779.7,763.8 794.6,729.9 789.1,729.9 				"/>
				<path class="st2" d="M820.6,729.8c-2.5,0-4.6,0.3-6.4,0.8c-1.8,0.5-3.2,1-4.1,1.6c-1,0.6-1.5,1-1.5,1l-1.4,6.5
					c0.7-0.9,2-2,4.1-3.5c2.1-1.4,5.1-2.1,8.8-2.1c1.8,0,3.3,0.4,4.4,1.2c1,0.8,1.6,1.9,1.6,3.1c0,1.2-0.6,2.2-1.8,3.1
					c-1.2,0.9-2.9,1.5-5,1.7c-4.7,0.3-8.2,1.3-10.5,3c-2.4,1.7-3.6,4.1-3.6,7.4c0.1,3,1.1,5.3,3.1,6.7c2,1.4,4.4,2.2,7.4,2.3
					c3.5,0,6-0.4,7.4-1.3c1.5-0.9,2.3-1.6,2.5-2.2v3.4h9.2v-23.4c0-2.8-1.1-5-3.4-6.7C829.2,730.7,825.6,729.8,820.6,729.8z
					 M825.6,753.5c0,1.8-1.5,3-4.5,3.9c-1.1,0.3-2.1,0.4-3.1,0.4c-3.4,0-5.1-1.1-5.3-3.3c0-1.9,0.7-3.3,2-4.1
					c1.3-0.8,3.3-1.3,5.9-1.7c1.4-0.2,2.6-0.4,3.3-0.9c0.8-0.4,1.2-0.8,1.5-1.2c0.2-0.4,0.3-0.7,0.3-0.7V753.5z"/>
				<path class="st2" d="M862.1,716.9h-9.2v13h-6.1v4.1h6.1v18.5c0,3.7,1.2,6.4,3.5,7.9c1.9,1.4,5,2.2,9.2,2.2c0.6,0,1.2,0,1.7-0.1
					c0.5,0,0.9,0,1,0v-4.6c-2.2,0-3.7-0.4-4.5-0.9c-1.2-0.8-1.7-2.2-1.7-4.1V734h6.2v-4.1h-6.2V716.9z"/>
				<path class="st2" d="M884.9,716.8c-1.7,0-3,0.5-3.9,1.6c-0.9,1.1-1.4,2.3-1.4,3.7c0,1.4,0.5,2.5,1.4,3.6c1,1.1,2.2,1.6,3.8,1.6
					c1.6,0,2.9-0.5,3.8-1.6c1-1,1.4-2.2,1.4-3.7c0-1.4-0.5-2.6-1.4-3.7C887.8,717.3,886.5,716.8,884.9,716.8z"/>
				<rect x="880.3" y="729.9" class="st2" width="9.1" height="32.6"/>
				<path class="st2" d="M926.9,731.6c-2.2-1.3-5.3-1.8-9.1-1.8c-10.3,0-15.5,5.5-15.5,16.5c0,5.8,1.2,9.9,3.7,12.6
					c2.5,2.6,6.3,3.9,11.6,4c5.6,0,9.5-1.3,12-4c2.4-2.7,3.7-7,3.7-12.7c0-3.7-0.5-6.8-1.5-9.2C930.8,734.6,929.2,732.8,926.9,731.6
					z M923.1,755.2c-0.7,2.1-2.4,3.1-5.2,3.1c-1.9,0-3.4-0.6-4.3-1.8c-0.9-1.2-1.5-2.5-1.7-4c-0.2-1.4-0.4-3.6-0.5-6.3
					c0-3.7,0.4-6.6,1.2-8.7c0.8-2.1,2.7-3.2,5.4-3.3c2.7,0,4.5,1.1,5.2,3.3c0.7,2.2,1,5.2,1,8.9
					C924.1,750.1,923.8,753.1,923.1,755.2z"/>
				<path class="st2" d="M964.5,729.7c-1.8,0-3.4,0.2-4.7,0.6c-1.4,0.5-2.4,0.9-3.2,1.4c-0.7,0.5-1.2,0.8-1.3,0.8v-2.7h-9.2v32.6
					h9.2v-23.6c0.2-0.6,0.7-1.4,1.6-2.4c0.9-1.1,2.4-1.7,4.4-1.9c4.2,0,6.3,1.3,6.3,4.1v23.8h6.9v-25c0-2.1-0.8-3.8-2.4-5.4
					C970.4,730.5,967.8,729.7,964.5,729.7z"/>
				<path class="st2" d="M1035,716.9l-15.8,45.6h7.2l3.7-10.8h18.2l4,10.8h10.3l-16-45.6H1035z M1032.5,745l6.7-19.4l7,19.4H1032.5z
					"/>
				<path class="st2" d="M1092.4,742.5c-2.3-0.6-4.6-1.2-6.8-1.8c-2.3-0.7-3.4-1.6-3.4-2.9c0.1-1.6,0.7-2.6,1.9-3.1
					c1.1-0.5,2.8-0.7,4.9-0.7c3.1,0,5.6,0.3,7.4,0.9c1.8,0.6,3,1.1,3.6,1.5l-1.6-5.3c-0.6-0.3-1.8-0.6-3.6-1
					c-1.8-0.4-4.1-0.6-7.1-0.6c-0.2,0-0.5,0-1,0.1c-0.5,0-0.9,0.1-1.1,0.1c-8,0.3-12.2,3.2-12.4,8.4c0,3,0.8,5.1,2.4,6.3
					c1.6,1.2,4,2.1,7.3,2.7c3.2,0.6,5.5,1.3,7,2c1.4,0.7,2.2,2.1,2.2,4.2c-0.1,1.8-0.6,3.2-1.6,4.1c-1,0.8-3,1.2-5.8,1.2
					c-2.7,0-5-0.4-6.9-1.1c-1.9-0.8-3.2-1.3-3.9-1.9l1.2,5.7c0.8,0.3,2.2,0.6,4.2,1.1c2,0.5,4.4,0.7,7.2,0.7c1,0,1.9,0,2.3-0.1
					c4.1-0.3,7.2-1.3,9.4-3.1c2.1-1.7,3.2-4.6,3.2-8.6c-0.1-2.7-1-4.7-2.7-6C1096.9,743.9,1094.8,743,1092.4,742.5z"/>
				<path class="st2" d="M1132.6,742.5c-2.3-0.6-4.6-1.2-6.9-1.8c-2.2-0.7-3.3-1.6-3.3-2.9c0-1.6,0.6-2.6,1.8-3.1
					c1.2-0.5,2.8-0.7,4.9-0.7c3.1,0,5.6,0.3,7.4,0.9c1.8,0.6,3.1,1.1,3.7,1.5l-1.6-5.3c-0.6-0.3-1.8-0.6-3.6-1
					c-1.8-0.4-4.1-0.6-7-0.6c-0.2,0-0.5,0-1,0.1c-0.5,0-0.8,0.1-1.1,0.1c-8.1,0.3-12.2,3.2-12.4,8.4c0,3,0.8,5.1,2.4,6.3
					c1.6,1.2,4,2.1,7.2,2.7c3.2,0.6,5.6,1.3,7,2c1.5,0.7,2.2,2.1,2.2,4.2c-0.1,1.8-0.6,3.2-1.7,4.1c-1,0.8-2.9,1.2-5.8,1.2
					c-2.7,0-5-0.4-6.9-1.1c-1.9-0.8-3.2-1.3-4-1.9l1.3,5.7c0.8,0.3,2.1,0.6,4.2,1.1c2,0.5,4.4,0.7,7.2,0.7c1,0,1.8,0,2.3-0.1
					c4-0.3,7.2-1.3,9.3-3.1c2.2-1.7,3.2-4.6,3.2-8.6c0-2.7-0.9-4.7-2.7-6C1137.1,743.9,1135,743,1132.6,742.5z"/>
				<path class="st2" d="M1178.4,731.6c-2.3-1.3-5.3-1.8-9.1-1.8c-10.3,0-15.5,5.5-15.6,16.5c0,5.8,1.3,9.9,3.8,12.6
					c2.5,2.6,6.4,3.9,11.6,4c5.6,0,9.6-1.3,12-4c2.4-2.7,3.7-7,3.7-12.7c0-3.7-0.5-6.8-1.5-9.2
					C1182.2,734.6,1180.7,732.8,1178.4,731.6z M1174.5,755.2c-0.7,2.1-2.4,3.1-5.2,3.1c-2,0-3.4-0.6-4.3-1.8c-1-1.2-1.5-2.5-1.7-4
					c-0.2-1.4-0.4-3.6-0.5-6.3c0-3.7,0.4-6.6,1.2-8.7c0.8-2.1,2.6-3.2,5.4-3.3c2.7,0,4.4,1.1,5.1,3.3c0.7,2.2,1.1,5.2,1.1,8.9
					C1175.6,750.1,1175.3,753.1,1174.5,755.2z"/>
				<path class="st2" d="M1218.4,757.8c-1.5,0.3-3.3,0.5-5.5,0.5c-2.6-0.2-4.4-1.5-5.3-3.9c-0.9-2.4-1.3-5.5-1.3-9.3
					c0-3.1,0.5-5.8,1.5-7.9c1-2.1,3.1-3.1,6.2-3.1c2.4,0,4.4,0.3,6,0.7c1.6,0.4,2.6,0.8,3.3,1.1l-1-4.6c-0.8-0.2-2.1-0.5-3.9-0.9
					c-1.8-0.4-3.9-0.5-6.2-0.6c-3.6,0-6.5,0.5-8.7,1.7c-2.2,1.1-3.8,2.8-4.8,5c-1,2.2-1.6,5.1-1.7,8.6c0,4.4,0.5,7.8,1.5,10.4
					c1,2.5,2.7,4.3,5,5.4c2.3,1.1,5.5,1.7,9.4,1.7c2.9-0.1,5.2-0.3,7-0.7c1.8-0.4,2.8-0.6,2.8-0.8l0.6-5.4c0,0.1-0.5,0.3-1.4,0.8
					C1221.1,757,1219.9,757.4,1218.4,757.8z"/>
				<path class="st2" d="M1240.8,716.8c-1.6,0-2.9,0.5-3.9,1.6c-0.9,1.1-1.3,2.3-1.3,3.7c0,1.4,0.4,2.5,1.3,3.6
					c1,1.1,2.2,1.6,3.8,1.6c1.7,0,2.9-0.5,3.9-1.6c0.9-1,1.3-2.2,1.3-3.7c0-1.4-0.4-2.6-1.3-3.7
					C1243.6,717.3,1242.4,716.8,1240.8,716.8z"/>
				<rect x="1236.2" y="729.9" class="st2" width="9.1" height="32.6"/>
				<path class="st2" d="M1273.3,729.8c-2.5,0-4.6,0.3-6.4,0.8c-1.8,0.5-3.1,1-4.2,1.6c-1,0.6-1.4,1-1.4,1l-1.4,6.5
					c0.7-0.9,2.1-2,4.1-3.5c2.1-1.4,5-2.1,8.8-2.1c1.8,0,3.3,0.4,4.3,1.2c1.1,0.8,1.7,1.9,1.7,3.1c0,1.2-0.6,2.2-1.8,3.1
					c-1.2,0.9-2.9,1.5-5,1.7c-4.8,0.3-8.3,1.3-10.6,3c-2.3,1.7-3.5,4.1-3.5,7.4c0,3,1,5.3,3,6.7c2,1.4,4.4,2.2,7.4,2.3
					c3.5,0,6-0.4,7.4-1.3c1.4-0.9,2.4-1.6,2.6-2.2v3.4h9.2v-23.4c0-2.8-1.1-5-3.4-6.7C1282,730.7,1278.3,729.8,1273.3,729.8z
					 M1278.4,753.5c0,1.8-1.5,3-4.5,3.9c-1.1,0.3-2.1,0.4-3.1,0.4c-3.4,0-5.1-1.1-5.3-3.3c0-1.9,0.7-3.3,2-4.1
					c1.3-0.8,3.2-1.3,5.8-1.7c1.5-0.2,2.6-0.4,3.4-0.9c0.7-0.4,1.2-0.8,1.4-1.2c0.2-0.4,0.3-0.7,0.3-0.7V753.5z"/>
				<path class="st2" d="M1314.9,716.9h-9.2v13h-6.2v4.1h6.2v18.5c0,3.7,1.1,6.4,3.5,7.9c1.9,1.4,5,2.2,9.2,2.2c0.6,0,1.2,0,1.7-0.1
					c0.5,0,0.9,0,1,0v-4.6c-2.2,0-3.7-0.4-4.5-0.9c-1.1-0.8-1.7-2.2-1.7-4.1V734h6.1v-4.1h-6.1V716.9z"/>
				<path class="st2" d="M1337.6,716.8c-1.6,0-2.9,0.5-3.9,1.6c-0.9,1.1-1.4,2.3-1.4,3.7c0,1.4,0.5,2.5,1.4,3.6
					c1,1.1,2.2,1.6,3.8,1.6c1.7,0,3-0.5,3.9-1.6c0.9-1,1.4-2.2,1.4-3.7c0-1.4-0.5-2.6-1.4-3.7
					C1340.5,717.3,1339.2,716.8,1337.6,716.8z"/>
				<rect x="1333" y="729.9" class="st2" width="9.1" height="32.6"/>
				<path class="st2" d="M1379.7,731.6c-2.3-1.3-5.3-1.8-9.1-1.8c-10.3,0-15.5,5.5-15.6,16.5c0,5.8,1.3,9.9,3.7,12.6
					c2.5,2.6,6.4,3.9,11.6,4c5.6,0,9.6-1.3,12-4c2.4-2.7,3.7-7,3.7-12.7c0-3.7-0.6-6.8-1.5-9.2
					C1383.5,734.6,1381.9,732.8,1379.7,731.6z M1375.9,755.2c-0.7,2.1-2.4,3.1-5.2,3.1c-1.9,0-3.4-0.6-4.3-1.8
					c-0.9-1.2-1.5-2.5-1.7-4c-0.2-1.4-0.4-3.6-0.5-6.3c0-3.7,0.4-6.6,1.2-8.7c0.8-2.1,2.6-3.2,5.4-3.3c2.7,0,4.5,1.1,5.2,3.3
					c0.7,2.2,1.1,5.2,1.1,8.9C1376.9,750.1,1376.5,753.1,1375.9,755.2z"/>
				<path class="st2" d="M1417.2,729.7c-1.8,0-3.4,0.2-4.8,0.6c-1.3,0.5-2.3,0.9-3.1,1.4c-0.8,0.5-1.1,0.8-1.3,0.8v-2.7h-9.2v32.6
					h9.2v-23.6c0.2-0.6,0.7-1.4,1.6-2.4c0.9-1.1,2.3-1.7,4.3-1.9c4.2,0,6.3,1.3,6.3,4.1v23.8h6.8v-25c0-2.1-0.8-3.8-2.4-5.4
					C1423.1,730.5,1420.6,729.7,1417.2,729.7z"/>
			</g>
		</g>
	</g>
</g>
</svg>
